<mxfile host="app.diagrams.net" modified="2023-08-23T00:55:05.536Z" agent="Mozilla/5.0 (Windows NT 10.0; Win64; x64) AppleWebKit/537.36 (KHTML, like Gecko) Chrome/110.0.0.0 Safari/537.36" version="21.6.9" etag="ZCWQM73NvJbH4RF7OL7b" type="github">
  <diagram name="Trang-1" id="clGS8CKplPmWcHOlwCJ2">
    <mxGraphModel>
      <root>
        <mxCell id="0" />
        <mxCell id="1" parent="0" />
      </root>
    </mxGraphModel>
  </diagram>
</mxfile>
